<svg xmlns="http://www.w3.org/2000/svg" xmlns:xlink="http://www.w3.org/1999/xlink" fill="none" version="1.1" width="21" height="19" viewBox="0 0 21 19"><defs><linearGradient x1="0.9782598614692688" y1="0.04584703966975212" x2="0.2000492941282577" y2="0.6897694939229071" id="master_svg0_5182_234448"><stop offset="0%" stop-color="#165CFF" stop-opacity="1"/><stop offset="99.9997079372406%" stop-color="#A221FF" stop-opacity="1"/></linearGradient><linearGradient x1="0.5" y1="0" x2="0.5" y2="1" id="master_svg1_5182_234235"><stop offset="0%" stop-color="#888888" stop-opacity="1"/><stop offset="100%" stop-color="#888888" stop-opacity="0"/></linearGradient></defs><g><g><g transform="matrix(-1,0,0,1,42,0)"><path d="M30.5,0L32.586208,0C37.785301000000004,0,42,4.2146983,42,9.4137926L42,19L30.5,19C25.2532945,19,21,14.746706,21,9.5C21,4.2532945,25.2532945,0,30.5,0" fill-rule="evenodd" fill="url(#master_svg0_5182_234448)" fill-opacity="1"/></g><g><g><path d="M7.1045938,4.8460726L6.5833511,3.4375L6.0621092,4.8460733000000005C5.9439425,5.1653996,5.6862514,5.4230906,5.366925,5.5412569000000005L3.95835114,6.0624994999999995L5.366925,6.5837433C5.6862512,6.7019103,5.9439425,6.9596009,6.0621089999999995,7.2789266L6.5833511,8.687498999999999L7.1045942,7.278927299999999C7.2227607,6.9596014,7.4804525,6.70191,7.7997785,6.5837426L9.2083511,6.0624994999999995L7.7997789,5.5412567C7.4804525,5.42309,7.2227607,5.1653986,7.1045938,4.8460726ZM11.9180279,11.458334L11.9180279,13.937501C11.9180288,14.259666,12.1791954,14.520834,12.5013618,14.520834C12.8235283,14.520834,13.0846949,14.259666,13.0846949,13.937501L13.0846958,10.875000499999999L13.0846958,6.4693778Q13.0846958,5.919194,12.6848907,5.5442798Q12.3044262,5.1875002,11.7697487,5.1875002Q11.0482283,5.1875002,10.6628656,5.8069346L8.3367004,9.546027200000001L5.796378600000001,13.629361C5.7388444,13.721842,5.7083511,13.828584,5.7083511,13.937501C5.7083511,14.259666,5.9695184,14.520834,6.2916846,14.520834C6.4932423,14.520834,6.6805191,14.41678,6.7869899,14.245641L8.521028000000001,11.458334L11.9180279,11.458334ZM15.625017,5.770834L15.625017,13.937501C15.625017,14.259666,15.36385,14.520834,15.041685,14.520834C14.719519,14.520834,14.458351,14.259666,14.458351,13.937501L14.45835,5.770834C14.458351,5.4486675,14.719518,5.1875005000000005,15.041685,5.1875005000000005C15.36385,5.1875005000000005,15.625017,5.4486678,15.625017,5.770834ZM11.9180279,10.291667L9.2468348,10.291667L9.3273125,10.162306300000001L11.6534758,6.4232149Q11.6964321,6.3541672,11.7697487,6.3541672Q11.9180279,6.3541672,11.9180279,6.4693778L11.9180279,10.291667ZM5.0420918,9.8349686L4.8333337,9.2708335L4.6245755,9.8349686C4.5064088,10.154294499999999,4.25846148,10.402241700000001,3.93913531,10.5204086L3.375,10.7291665L3.93913531,10.937924899999999C4.25846148,11.0560918,4.5064088,11.3040395,4.6245755,11.6233664L4.8333337,12.187501L5.0420918,11.6233664C5.1602584,11.3040395,5.4082057,11.0560918,5.7275320999999995,10.937924899999999L6.2916675,10.7291665L5.7275319,10.5204086C5.4082057,10.402241700000001,5.1602584,10.154294499999999,5.0420918,9.8349686Z" fill-rule="evenodd" fill="url(#master_svg1_5182_234235)" fill-opacity="1"/><path d="M7.1045938,4.8460726L6.5833511,3.4375L6.0621092,4.8460733000000005C5.9439425,5.1653996,5.6862514,5.4230906,5.366925,5.5412569000000005L3.95835114,6.0624994999999995L5.366925,6.5837433C5.6862512,6.7019103,5.9439425,6.9596009,6.0621089999999995,7.2789266L6.5833511,8.687498999999999L7.1045942,7.278927299999999C7.2227607,6.9596014,7.4804525,6.70191,7.7997785,6.5837426L9.2083511,6.0624994999999995L7.7997789,5.5412567C7.4804525,5.42309,7.2227607,5.1653986,7.1045938,4.8460726ZM11.9180279,11.458334L11.9180279,13.937501C11.9180288,14.259666,12.1791954,14.520834,12.5013618,14.520834C12.8235283,14.520834,13.0846949,14.259666,13.0846949,13.937501L13.0846958,10.875000499999999L13.0846958,6.4693778Q13.0846958,5.919194,12.6848907,5.5442798Q12.3044262,5.1875002,11.7697487,5.1875002Q11.0482283,5.1875002,10.6628656,5.8069346L8.3367004,9.546027200000001L5.796378600000001,13.629361C5.7388444,13.721842,5.7083511,13.828584,5.7083511,13.937501C5.7083511,14.259666,5.9695184,14.520834,6.2916846,14.520834C6.4932423,14.520834,6.6805191,14.41678,6.7869899,14.245641L8.521028000000001,11.458334L11.9180279,11.458334ZM15.625017,5.770834L15.625017,13.937501C15.625017,14.259666,15.36385,14.520834,15.041685,14.520834C14.719519,14.520834,14.458351,14.259666,14.458351,13.937501L14.45835,5.770834C14.458351,5.4486675,14.719518,5.1875005000000005,15.041685,5.1875005000000005C15.36385,5.1875005000000005,15.625017,5.4486678,15.625017,5.770834ZM11.9180279,10.291667L9.2468348,10.291667L9.3273125,10.162306300000001L11.6534758,6.4232149Q11.6964321,6.3541672,11.7697487,6.3541672Q11.9180279,6.3541672,11.9180279,6.4693778L11.9180279,10.291667ZM5.0420918,9.8349686L4.8333337,9.2708335L4.6245755,9.8349686C4.5064088,10.154294499999999,4.25846148,10.402241700000001,3.93913531,10.5204086L3.375,10.7291665L3.93913531,10.937924899999999C4.25846148,11.0560918,4.5064088,11.3040395,4.6245755,11.6233664L4.8333337,12.187501L5.0420918,11.6233664C5.1602584,11.3040395,5.4082057,11.0560918,5.7275320999999995,10.937924899999999L6.2916675,10.7291665L5.7275319,10.5204086C5.4082057,10.402241700000001,5.1602584,10.154294499999999,5.0420918,9.8349686Z" fill-rule="evenodd" fill="#FFFFFF" fill-opacity="1"/></g></g></g></g></svg>